<?xml version="1.0" ?><svg viewBox="0 0 64 64" xmlns="http://www.w3.org/2000/svg"><defs><style>.cls-1{fill:none;stroke:#000;stroke-linecap:round;stroke-linejoin:round;stroke-width:2px;}</style></defs><title/><g data-name="Layer 6" id="Layer_6"><path class="cls-1" d="M50.43,17.31V46.39A4.64,4.64,0,0,1,45.81,51H17.22a4.64,4.64,0,0,1-4.62-4.62V17.31a4.64,4.64,0,0,1,4.63-4.63H45.81"/><circle cx="50.48" cy="13.98" r="1"/><path class="cls-1" d="M28.92,28.08h5v1.64h.1c.64-1,1.7-2,4.31-2,3.23,0,5.64,2.13,5.64,6.77v9.35h-4.9V35.11c0-2-.71-3.42-2.48-3.42a2.62,2.62,0,0,0-2.48,1.84A3.5,3.5,0,0,0,34,34.75v9.1h-4.9V32"/><polyline class="cls-1" points="25.2 32.08 25.2 43.98 20.31 43.98 20.31 28.08 25.2 28.08"/><path class="cls-1" d="M25.52,22.75A2.77,2.77,0,1,1,22.75,20"/></g></svg>